<svg xmlns="http://www.w3.org/2000/svg" version="1.1" xmlns:xlink="http://www.w3.org/1999/xlink" xmlns:svgjs="http://svgjs.dev/svgjs" width="2740" height="2740" preserveAspectRatio="none" viewBox="0 0 2740 2740"><g mask="url(&quot;#SvgjsMask1021&quot;)" fill="none"><path d="M505.92 558.55 a156.3 156.3 0 1 0 312.6 0 a156.3 156.3 0 1 0 -312.6 0z" fill="#037b0b"></path><path d="M393.34 491.6a26.47 26.47 0 1 0-39.99 34.69z" fill="#e73635"></path><path d="M266.49 2496.27a190.55 190.55 0 1 0 358.44-129.46z" stroke="#e73635"></path><path d="M344.45 2457L359.46 2457L359.46 2681.68L344.45 2681.68z" fill="#e73635"></path><path d="M1117.63 1047.69 a222.25 222.25 0 1 0 444.5 0 a222.25 222.25 0 1 0 -444.5 0z" stroke="#037b0b"></path><path d="M2661.84 667.47a194.24 194.24 0 1 0-286.74 262.11z" fill="#d3b714"></path><path d="M2599.59 590.55a103.9 103.9 0 1 0-160.8 131.62z" stroke="#e73635"></path><path d="M135.59 1125.81L193.22 1125.81L193.22 1183.44L135.59 1183.44z" stroke="#d3b714"></path><path d="M1374.45 158.65 a257.18 257.18 0 1 0 514.36 0 a257.18 257.18 0 1 0 -514.36 0z" stroke="#d3b714"></path><path d="M2733.28 1844.22a168.71 168.71 0 1 0-48.64-333.89z" fill="#d3b714"></path><path d="M2118.48 2212.9L2336.92 2212.9L2336.92 2235L2118.48 2235z" stroke="#d3b714"></path><path d="M2448.71 1728.3L2696.1 1728.3L2696.1 1975.69L2448.71 1975.69z" fill="#037b0b"></path><path d="M258.53 1043.57 a161.77 161.77 0 1 0 323.54 0 a161.77 161.77 0 1 0 -323.54 0z" fill="#d3b714"></path></g><defs><mask id="SvgjsMask1021"><rect width="2740" height="2740" fill="#ffffff"></rect></mask></defs></svg>