<svg xmlns="http://www.w3.org/2000/svg" version="1.1" xmlns:xlink="http://www.w3.org/1999/xlink" xmlns:svgjs="http://svgjs.dev/svgjs" width="1740" height="1740" preserveAspectRatio="none" viewBox="0 0 1740 1740"><g mask="url(&quot;#SvgjsMask1182&quot;)" fill="none"><rect width="1740" height="1740" x="0" y="0" fill="url(&quot;#SvgjsRadialGradient1183&quot;)"></rect><path d="M1740 0L1043.67 0L1740 379.02z" fill="rgba(255, 255, 255, .1)"></path><path d="M1043.67 0L1740 379.02L1740 491.96L580.8000000000001 0z" fill="rgba(255, 255, 255, .075)"></path><path d="M580.8 0L1740 491.96L1740 687.3299999999999L299.91999999999996 0z" fill="rgba(255, 255, 255, .05)"></path><path d="M299.9200000000001 0L1740 687.3299999999999L1740 861.2099999999999L118.83000000000007 0z" fill="rgba(255, 255, 255, .025)"></path><path d="M0 1740L702.67 1740L0 1501.3600000000001z" fill="rgba(0, 0, 0, .1)"></path><path d="M0 1501.3600000000001L702.67 1740L1032.4099999999999 1740L0 948.5000000000001z" fill="rgba(0, 0, 0, .075)"></path><path d="M0 948.5L1032.4099999999999 1740L1301.7599999999998 1740L0 547.69z" fill="rgba(0, 0, 0, .05)"></path><path d="M0 547.69L1301.7599999999998 1740L1396.8299999999997 1740L0 211.59000000000003z" fill="rgba(0, 0, 0, .025)"></path></g><defs><mask id="SvgjsMask1182"><rect width="1740" height="1740" fill="#ffffff"></rect></mask><radialGradient cx="50%" cy="50%" r="1230.37" gradientUnits="userSpaceOnUse" id="SvgjsRadialGradient1183"><stop stop-color="rgba(58, 61, 64, 1)" offset="0"></stop><stop stop-color="rgba(24, 23, 25, 1)" offset="1"></stop></radialGradient></defs></svg>